<svg width="865pt" height="620pt" viewBox="0 0 864.64 620" xmlns="http://www.w3.org/2000/svg">
    <g class="graph" transform="translate(4 616)">
        <path fill="#fff" stroke="transparent" d="M-4 4v-620h864.64V4H-4z"/>
        <g class="node">
            <ellipse fill="none" stroke="#000" cx="169.02" cy="-234" rx="40.58" ry="18"/>
            <text text-anchor="middle" x="169.02" y="-229.8" font-family="Times,serif" font-size="14">
                arrayvec
            </text>
        </g>
        <g class="node">
            <ellipse fill="none" stroke="#000" cx="171.02" cy="-162" rx="35.32" ry="18"/>
            <text text-anchor="middle" x="171.02" y="-157.8" font-family="Times,serif" font-size="14">
                nodrop
            </text>
        </g>
        <g class="edge">
            <path fill="none" stroke="#000" d="M169.51-215.7c.22 7.72.49 16.99.74 25.59"/>
            <path stroke="#000" d="M173.74-190.2l-3.21 10.1-3.78-9.9 6.99-.2z"/>
        </g>
        <g class="node">
            <ellipse fill="none" stroke="#000" cx="820.02" cy="-450" rx="36.75" ry="18"/>
            <text text-anchor="middle" x="820.02" y="-445.8" font-family="Times,serif" font-size="14">
                autocfg
            </text>
        </g>
        <g class="node">
            <ellipse fill="none" stroke="#000" cx="374.02" cy="-162" rx="29.99" ry="18"/>
            <text text-anchor="middle" x="374.02" y="-157.8" font-family="Times,serif" font-size="14">
                cfg-if
            </text>
        </g>
        <g class="node">
            <ellipse fill="none" stroke="#000" cx="389.02" cy="-378" rx="71.49" ry="18"/>
            <text text-anchor="middle" x="389.02" y="-373.8" font-family="Times,serif" font-size="14">
                crossbeam-deque
            </text>
        </g>
        <g class="node">
            <ellipse fill="none" stroke="#000" cx="284.02" cy="-306" rx="71.49" ry="18"/>
            <text text-anchor="middle" x="284.02" y="-301.8" font-family="Times,serif" font-size="14">
                crossbeam-epoch
            </text>
        </g>
        <g class="edge">
            <path fill="none" stroke="#000" d="M364.93-360.94c-14.41 9.6-32.9 21.93-48.56 32.38"/>
            <path stroke="#000" d="M318.26-325.62L308-322.98l6.38-8.46 3.88 5.82z"/>
        </g>
        <g class="node">
            <ellipse fill="none" stroke="#000" cx="488.02" cy="-234" rx="65.72" ry="18"/>
            <text text-anchor="middle" x="488.02" y="-229.8" font-family="Times,serif" font-size="14">
                crossbeam-utils
            </text>
        </g>
        <g class="edge">
            <path fill="none" stroke="#000" d="M387.43-359.76c-.89 19.11.35 50.1 14.59 71.76 9.58 14.56 24.68 25.8 39.57 34.11"/>
            <path stroke="#000" d="M443.54-256.82l7.25 7.73-10.49-1.52 3.24-6.21z"/>
        </g>
        <g class="edge">
            <path fill="none" stroke="#000" d="M257.92-289.12c-16.93 10.31-39.09 23.8-57.06 34.74"/>
            <path stroke="#000" d="M202.26-251.14l-10.36 2.21 6.72-8.19 3.64 5.98z"/>
        </g>
        <g class="edge">
            <path fill="none" stroke="#000" d="M303.83-288.65c10.88 9.76 24 22.91 33.19 36.65 12.95 19.36 22.76 43.99 29.01 62.42"/>
            <path stroke="#000" d="M369.37-190.64l-.23 10.6-6.43-8.43 6.66-2.17z"/>
        </g>
        <g class="edge">
            <path fill="none" stroke="#000" d="M324.81-291c32.95 11.3 79.42 27.25 114.35 39.23"/>
            <path stroke="#000" d="M440.36-255.05l8.32 6.55-10.59.07 2.27-6.62z"/>
        </g>
        <g class="node">
            <ellipse fill="none" stroke="#000" cx="488.02" cy="-162" rx="47.84" ry="18"/>
            <text text-anchor="middle" x="488.02" y="-157.8" font-family="Times,serif" font-size="14">
                lazy_static
            </text>
        </g>
        <g class="edge">
            <path fill="none" stroke="#000" d="M307.65-288.81c15.25 10.47 35.51 24.4 53.37 36.81 33.38 23.18 71.54 49.97 97.25 68.05"/>
            <path stroke="#000" d="M460.32-186.79l6.17 8.62-10.2-2.89 4.03-5.73z"/>
        </g>
        <g class="node">
            <ellipse fill="none" stroke="#000" cx="62.02" cy="-234" rx="47.54" ry="18"/>
            <text text-anchor="middle" x="62.02" y="-229.8" font-family="Times,serif" font-size="14">
                memoffset
            </text>
        </g>
        <g class="edge">
            <path fill="none" stroke="#000" d="M241.22-291.5c-38.57 12.16-95.06 29.97-134.27 42.33"/>
            <path stroke="#000" d="M107.97-245.82l-10.59-.33 8.48-6.35 2.11 6.68z"/>
        </g>
        <g class="node">
            <ellipse fill="none" stroke="#000" cx="278.02" cy="-234" rx="50.26" ry="18"/>
            <text text-anchor="middle" x="278.02" y="-229.8" font-family="Times,serif" font-size="14">
                scopeguard
            </text>
        </g>
        <g class="edge">
            <path fill="none" stroke="#000" d="M282.54-287.7c-.66 7.72-1.46 16.99-2.2 25.59"/>
            <path stroke="#000" d="M283.83-261.77l-4.34 9.67-2.64-10.27 6.98.6z"/>
        </g>
        <g class="edge">
            <path fill="none" stroke="#000" d="M462.44-217.29c-17.72 10.88-41.32 25.37-59.68 36.64"/>
            <path stroke="#000" d="M404.57-177.65l-10.36 2.25 6.69-8.21 3.67 5.96z"/>
        </g>
        <g class="edge">
            <path fill="none" stroke="#000" d="M488.02-215.7v25.59"/>
            <path stroke="#000" d="M491.52-190.1l-3.5 10-3.5-10h7z"/>
        </g>
        <g class="node">
            <ellipse fill="none" stroke="#000" cx="60.02" cy="-162" rx="57.51" ry="18"/>
            <text text-anchor="middle" x="60.02" y="-157.8" font-family="Times,serif" font-size="14">
                rustc_version
            </text>
        </g>
        <g class="edge">
            <path fill="none" stroke="#000" d="M61.53-215.7c-.23 7.72-.49 16.99-.74 25.59"/>
            <path stroke="#000" d="M64.29-190l-3.78 9.9-3.21-10.1 6.99.2z"/>
        </g>
        <g class="node">
            <ellipse fill="none" stroke="#000" cx="482.02" cy="-306" rx="71.49" ry="18"/>
            <text text-anchor="middle" x="482.02" y="-301.8" font-family="Times,serif" font-size="14">
                crossbeam-queue
            </text>
        </g>
        <g class="edge">
            <path fill="none" stroke="#000" d="M483.5-287.7c.66 7.72 1.46 16.99 2.2 25.59"/>
            <path stroke="#000" d="M489.19-262.37l-2.64 10.27-4.34-9.67 6.98-.6z"/>
        </g>
        <g class="node">
            <ellipse fill="none" stroke="#000" cx="479.02" cy="-450" rx="30.48" ry="18"/>
            <text text-anchor="middle" x="479.02" y="-445.8" font-family="Times,serif" font-size="14">
                either
            </text>
        </g>
        <g class="node">
            <ellipse fill="none" stroke="#000" cx="704.02" cy="-522" rx="35.81" ry="18"/>
            <text text-anchor="middle" x="704.02" y="-517.8" font-family="Times,serif" font-size="14">
                getopts
            </text>
        </g>
        <g class="node">
            <ellipse fill="none" stroke="#000" cx="704.02" cy="-450" rx="61.38" ry="18"/>
            <text text-anchor="middle" x="704.02" y="-445.8" font-family="Times,serif" font-size="14">
                unicode-width
            </text>
        </g>
        <g class="edge">
            <path fill="none" stroke="#000" d="M704.02-503.7v25.59"/>
            <path stroke="#000" d="M707.52-478.1l-3.5 10-3.5-10h7z"/>
        </g>
        <g class="node">
            <ellipse fill="none" stroke="#000" cx="656.02" cy="-306" rx="46.88" ry="18"/>
            <text text-anchor="middle" x="656.02" y="-301.8" font-family="Times,serif" font-size="14">
                hermit-abi
            </text>
        </g>
        <g class="node">
            <ellipse fill="none" stroke="#000" cx="685.02" cy="-234" rx="27" ry="18"/>
            <text text-anchor="middle" x="685.02" y="-229.8" font-family="Times,serif" font-size="14">
                libc
            </text>
        </g>
        <g class="edge">
            <path fill="none" stroke="#000" d="M663.04-288.05c3.35 8.08 7.43 17.93 11.16 26.94"/>
            <path stroke="#000" d="M677.47-262.37l.59 10.58-7.06-7.9 6.47-2.68z"/>
        </g>
        <g class="node">
            <ellipse fill="none" stroke="#000" cx="811.02" cy="-522" rx="44.96" ry="18"/>
            <text text-anchor="middle" x="811.02" y="-517.8" font-family="Times,serif" font-size="14">
                indexmap
            </text>
        </g>
        <g class="edge">
            <path fill="none" stroke="#000" d="M813.24-503.7c1 7.72 2.19 16.99 3.29 25.59"/>
            <path stroke="#000" d="M820.02-478.47l-2.2 10.37-4.75-9.48 6.95-.89z"/>
        </g>
        <g class="node">
            <ellipse fill="none" stroke="#000" cx="60.02" cy="-90" rx="35.79" ry="18"/>
            <text text-anchor="middle" x="60.02" y="-85.8" font-family="Times,serif" font-size="14">
                semver
            </text>
        </g>
        <g class="edge">
            <path fill="none" stroke="#000" d="M60.02-143.7v25.59"/>
            <path stroke="#000" d="M63.52-118.1l-3.5 10-3.5-10h7z"/>
        </g>
        <g class="node">
            <ellipse fill="none" stroke="#000" cx="656.02" cy="-378" rx="46.42" ry="18"/>
            <text text-anchor="middle" x="656.02" y="-373.8" font-family="Times,serif" font-size="14">
                num_cpus
            </text>
        </g>
        <g class="edge">
            <path fill="none" stroke="#000" d="M656.02-359.7v25.59"/>
            <path stroke="#000" d="M659.52-334.1l-3.5 10-3.5-10h7z"/>
        </g>
        <g class="edge">
            <path fill="none" stroke="#000" d="M678.94-362.3c12.31 9.31 26.31 22.56 33.08 38.3 9.13 21.22-.37 46.52-10.54 64.71"/>
            <path stroke="#000" d="M704.34-257.26l-8.14 6.77 2.14-10.37 6 3.6z"/>
        </g>
        <g class="node">
            <ellipse fill="none" stroke="#000" cx="528.02" cy="-522" rx="30.49" ry="18"/>
            <text text-anchor="middle" x="528.02" y="-517.8" font-family="Times,serif" font-size="14">
                rayon
            </text>
        </g>
        <g class="edge">
            <path fill="none" stroke="#000" d="M504.1-510.73c-19.09 9.1-45.62 23.86-64.08 42.73-17.71 18.1-31.48 43.56-40.23 62.61"/>
            <path stroke="#000" d="M402.92-403.82l-7.24 7.74.84-10.57 6.4 2.83z"/>
        </g>
        <g class="edge">
            <path fill="none" stroke="#000" d="M516.9-505.12c-6.2 8.86-14.05 20.08-21 30"/>
            <path stroke="#000" d="M498.7-473.01l-8.61 6.19 2.87-10.2 5.74 4.01z"/>
        </g>
        <g class="node">
            <ellipse fill="none" stroke="#000" cx="576.02" cy="-450" rx="48.31" ry="18"/>
            <text text-anchor="middle" x="576.02" y="-445.8" font-family="Times,serif" font-size="14">
                rayon-core
            </text>
        </g>
        <g class="edge">
            <path fill="none" stroke="#000" d="M538.91-505.12c5.85 8.53 13.19 19.23 19.79 28.87"/>
            <path stroke="#000" d="M561.73-478.02l2.77 10.22-8.54-6.27 5.77-3.95z"/>
        </g>
        <g class="edge">
            <path fill="none" stroke="#000" d="M543.02-436.65c-29.49 11.04-73.05 27.35-106.32 39.8"/>
            <path stroke="#000" d="M437.76-393.51l-10.59.23 8.14-6.78 2.45 6.55z"/>
        </g>
        <g class="edge">
            <path fill="none" stroke="#000" d="M578.97-431.65c4.37 31.08 9.45 97.34-16.95 143.65-7.69 13.5-20.39 24.44-33.11 32.81"/>
            <path stroke="#000" d="M530.51-252.07l-10.36 2.26 6.69-8.22 3.67 5.96z"/>
        </g>
        <g class="edge">
            <path fill="none" stroke="#000" d="M610.81-437.25c37.68 13.02 93.36 33.24 100.21 41.25 52.09 60.88 62.54 119.51 10 180-22.8 26.26-115.68 40.86-177.07 47.8"/>
            <path stroke="#000" d="M544.34-164.72l-10.33-2.39 9.56-4.57.77 6.96z"/>
        </g>
        <g class="edge">
            <path fill="none" stroke="#000" d="M565.05-432.43c-16.32 24.66-47.15 71.23-66.3 100.16"/>
            <path stroke="#000" d="M501.65-330.31l-8.44 6.41 2.6-10.27 5.84 3.86z"/>
        </g>
        <g class="edge">
            <path fill="none" stroke="#000" d="M594.17-433.12l36 31.5"/>
            <path stroke="#000" d="M632.72-404.04l5.22 9.22-9.83-3.95 4.61-5.27z"/>
        </g>
        <g class="node">
            <ellipse fill="none" stroke="#000" cx="60.02" cy="-18" rx="60.04" ry="18"/>
            <text text-anchor="middle" x="60.02" y="-13.8" font-family="Times,serif" font-size="14">
                semver-parser
            </text>
        </g>
        <g class="edge">
            <path fill="none" stroke="#000" d="M60.02-71.7v25.59"/>
            <path stroke="#000" d="M63.52-46.1l-3.5 10-3.5-10h7z"/>
        </g>
        <g class="node">
            <path fill="none" stroke="#000" d="M741.9-612h-75.76v36h75.76v-36z"/>
            <text text-anchor="middle" x="704.02" y="-589.8" font-family="Times,serif" font-size="14">
                wordcount
            </text>
        </g>
        <g class="edge">
            <path fill="none" stroke="#000" d="M704.02-575.7v25.59"/>
            <path stroke="#000" d="M707.52-550.1l-3.5 10-3.5-10h7z"/>
        </g>
        <g class="edge">
            <path fill="none" stroke="#000" d="M730.19-575.88c15.04 9.84 34.01 22.25 49.79 32.57"/>
            <path stroke="#000" d="M781.92-546.22l6.46 8.41-10.29-2.55 3.83-5.86z"/>
        </g>
        <g class="edge">
            <path fill="none" stroke="#000" d="M665.83-577.81c-30.88 12.28-73.97 29.42-103.7 41.25"/>
            <path stroke="#000" d="M563.18-533.22l-10.59.45 8-6.95 2.59 6.5z"/>
        </g>
    </g>
</svg>

