<svg width="1280" height="620pt" viewBox="0 0 960.02 620" xmlns="http://www.w3.org/2000/svg">
    <g class="graph" transform="translate(4 616)">
        <path fill="#fff" stroke="transparent" d="M-4 4v-620h960.02V4H-4z"/>
        <g class="node">
            <ellipse fill="none" stroke="#000" cx="466" cy="-162" rx="36.75" ry="18"/>
            <text text-anchor="middle" x="466" y="-157.8" font-family="Times,serif" font-size="14">
                autocfg
            </text>
        </g>
        <g class="node">
            <ellipse fill="none" stroke="#000" cx="27" cy="-234" rx="27" ry="18"/>
            <text text-anchor="middle" x="27" y="-229.8" font-family="Times,serif" font-size="14">
                cc
            </text>
        </g>
        <g class="node">
            <ellipse fill="none" stroke="#000" cx="706" cy="-162" rx="29.99" ry="18"/>
            <text text-anchor="middle" x="706" y="-157.8" font-family="Times,serif" font-size="14">
                cfg-if
            </text>
        </g>
        <g class="node">
            <ellipse fill="none" stroke="#000" cx="623" cy="-378" rx="71.49" ry="18"/>
            <text text-anchor="middle" x="623" y="-373.8" font-family="Times,serif" font-size="14">
                crossbeam-deque
            </text>
        </g>
        <g class="node">
            <ellipse fill="none" stroke="#000" cx="738" cy="-306" rx="71.49" ry="18"/>
            <text text-anchor="middle" x="738" y="-301.8" font-family="Times,serif" font-size="14">
                crossbeam-epoch
            </text>
        </g>
        <g class="edge">
            <path fill="none" stroke="#000" d="M649.1-361.12c16.02 9.76 36.74 22.37 54.15 32.97"/>
            <path stroke="#000" d="M705.29-331.01l6.72 8.19-10.36-2.21 3.64-5.98z"/>
        </g>
        <g class="node">
            <ellipse fill="none" stroke="#000" cx="528" cy="-234" rx="65.72" ry="18"/>
            <text text-anchor="middle" x="528" y="-229.8" font-family="Times,serif" font-size="14">
                crossbeam-utils
            </text>
        </g>
        <g class="edge">
            <path fill="none" stroke="#000" d="M627.05-359.89c3.5 19 6.16 49.89-7.05 71.89-9.44 15.72-25.44 27.22-41.47 35.42"/>
            <path stroke="#000" d="M579.67-249.25l-10.53 1.12 7.54-7.45 2.99 6.33z"/>
        </g>
        <g class="edge">
            <path fill="none" stroke="#000" d="M702.2-290.16c-20.43 9.37-45.93 22.62-66.2 38.16-17.23 13.21-15.07 23.76-33 36-4.34 2.97-60.01 24.13-99.03 38.8"/>
            <path stroke="#000" d="M505.04-173.87l-10.59.24 8.13-6.79 2.46 6.55z"/>
        </g>
        <g class="edge">
            <path fill="none" stroke="#000" d="M764.26-289.02c12.4 9.13 25.95 21.8 32.74 37.02 6.52 14.61 7.97 22.13 0 36-11.82 20.57-35.04 33.9-55.07 42.05"/>
            <path stroke="#000" d="M743.02-170.62l-10.6.27 8.12-6.81 2.48 6.54z"/>
        </g>
        <g class="edge">
            <path fill="none" stroke="#000" d="M696.76-291.25c-34.06 11.35-82.54 27.51-118.8 39.6"/>
            <path stroke="#000" d="M578.67-248.2l-10.6-.16 8.39-6.48 2.21 6.64z"/>
        </g>
        <g class="node">
            <ellipse fill="none" stroke="#000" cx="569" cy="-162" rx="47.84" ry="18"/>
            <text text-anchor="middle" x="569" y="-157.8" font-family="Times,serif" font-size="14">
                lazy_static
            </text>
        </g>
        <g class="edge">
            <path fill="none" stroke="#000" d="M719.43-288.32C699.17-270.23 665.64-240.63 636-216c-12.6 10.47-26.81 21.78-38.89 31.25"/>
            <path stroke="#000" d="M599.17-181.92l-10.03 3.4 5.72-8.92 4.31 5.52z"/>
        </g>
        <g class="node">
            <ellipse fill="none" stroke="#000" cx="892" cy="-234" rx="47.54" ry="18"/>
            <text text-anchor="middle" x="892" y="-229.8" font-family="Times,serif" font-size="14">
                memoffset
            </text>
        </g>
        <g class="edge">
            <path fill="none" stroke="#000" d="M771.04-289.98c24.13 10.97 56.94 25.88 82.3 37.41"/>
            <path stroke="#000" d="M855-255.66l7.66 7.32-10.55-.95 2.89-6.37z"/>
        </g>
        <g class="node">
            <ellipse fill="none" stroke="#000" cx="738" cy="-234" rx="50.26" ry="18"/>
            <text text-anchor="middle" x="738" y="-229.8" font-family="Times,serif" font-size="14">
                scopeguard
            </text>
        </g>
        <g class="edge">
            <path fill="none" stroke="#000" d="M738-287.7v25.59"/>
            <path stroke="#000" d="M741.5-262.1l-3.5 10-3.5-10h7z"/>
        </g>
        <g class="edge">
            <path fill="none" stroke="#000" d="M513.31-216.41c-7.91 8.93-17.81 20.1-26.5 29.91"/>
            <path stroke="#000" d="M489.41-184.15l-9.25 5.16 4.01-9.8 5.24 4.64z"/>
        </g>
        <g class="edge">
            <path fill="none" stroke="#000" d="M564.02-218.83c31.63 12.43 77.28 30.39 108.22 42.55"/>
            <path stroke="#000" d="M673.7-179.46l8.02 6.91-10.58-.4 2.56-6.51z"/>
        </g>
        <g class="edge">
            <path fill="none" stroke="#000" d="M537.92-216.05c4.84 8.25 10.75 18.35 16.12 27.51"/>
            <path stroke="#000" d="M557.13-190.19l2.04 10.4-8.08-6.86 6.04-3.54z"/>
        </g>
        <g class="node">
            <ellipse fill="none" stroke="#000" cx="892" cy="-162" rx="57.51" ry="18"/>
            <text text-anchor="middle" x="892" y="-157.8" font-family="Times,serif" font-size="14">
                rustc_version
            </text>
        </g>
        <g class="edge">
            <path fill="none" stroke="#000" d="M892-215.7v25.59"/>
            <path stroke="#000" d="M895.5-190.1l-3.5 10-3.5-10h7z"/>
        </g>
        <g class="node">
            <ellipse fill="none" stroke="#000" cx="540" cy="-306" rx="71.49" ry="18"/>
            <text text-anchor="middle" x="540" y="-301.8" font-family="Times,serif" font-size="14">
                crossbeam-queue
            </text>
        </g>
        <g class="edge">
            <path fill="none" stroke="#000" d="M537.03-287.7c-1.32 7.72-2.91 16.99-4.38 25.59"/>
            <path stroke="#000" d="M536.07-261.37l-5.14 9.27-1.76-10.45 6.9 1.18z"/>
        </g>
        <g class="node">
            <ellipse fill="none" stroke="#000" cx="575" cy="-450" rx="30.48" ry="18"/>
            <text text-anchor="middle" x="575" y="-445.8" font-family="Times,serif" font-size="14">
                either
            </text>
        </g>
        <g class="node">
            <ellipse fill="none" stroke="#000" cx="111" cy="-234" rx="38.68" ry="18"/>
            <text text-anchor="middle" x="111" y="-229.8" font-family="Times,serif" font-size="14">
                fs_extra
            </text>
        </g>
        <g class="node">
            <ellipse fill="none" stroke="#000" cx="250" cy="-306" rx="46.88" ry="18"/>
            <text text-anchor="middle" x="250" y="-301.8" font-family="Times,serif" font-size="14">
                hermit-abi
            </text>
        </g>
        <g class="node">
            <ellipse fill="none" stroke="#000" cx="232" cy="-234" rx="27" ry="18"/>
            <text text-anchor="middle" x="232" y="-229.8" font-family="Times,serif" font-size="14">
                libc
            </text>
        </g>
        <g class="edge">
            <path fill="none" stroke="#000" d="M245.64-288.05c-2.03 7.91-4.5 17.51-6.78 26.36"/>
            <path stroke="#000" d="M242.2-260.6l-5.88 8.81-.9-10.56 6.78 1.75z"/>
        </g>
        <g class="node">
            <ellipse fill="none" stroke="#000" cx="365" cy="-522" rx="44.96" ry="18"/>
            <text text-anchor="middle" x="365" y="-517.8" font-family="Times,serif" font-size="14">
                indexmap
            </text>
        </g>
        <g class="edge">
            <path fill="none" stroke="#000" d="M365-503.95V-305c0 50.6 43.12 95.7 73.01 120.89"/>
            <path stroke="#000" d="M440.52-186.59l5.53 9.04-9.96-3.62 4.43-5.42z"/>
        </g>
        <g class="node">
            <ellipse fill="none" stroke="#000" cx="92" cy="-306" rx="54.61" ry="18"/>
            <text text-anchor="middle" x="92" y="-301.8" font-family="Times,serif" font-size="14">
                jemalloc-sys
            </text>
        </g>
        <g class="edge">
            <path fill="none" stroke="#000" d="M76.6-288.41c-8.54 9.19-19.26 20.74-28.56 30.75"/>
            <path stroke="#000" d="M50.33-254.98l-9.37 4.94 4.24-9.71 5.13 4.77z"/>
        </g>
        <g class="edge">
            <path fill="none" stroke="#000" d="M96.6-288.05c2.11 7.79 4.68 17.23 7.05 25.97"/>
            <path stroke="#000" d="M107.07-262.84l-.76 10.56-6-8.73 6.76-1.83z"/>
        </g>
        <g class="edge">
            <path fill="none" stroke="#000" d="M121.01-290.5c23.61 11.81 56.84 28.43 80.78 40.39"/>
            <path stroke="#000" d="M203.4-253.21l7.38 7.6-10.51-1.34 3.13-6.26z"/>
        </g>
        <g class="node">
            <ellipse fill="none" stroke="#000" cx="172" cy="-378" rx="54.11" ry="18"/>
            <text text-anchor="middle" x="172" y="-373.8" font-family="Times,serif" font-size="14">
                jemallocator
            </text>
        </g>
        <g class="edge">
            <path fill="none" stroke="#000" d="M174.25-359.96c2.86 18.4 8.82 48.26 19.75 71.96 4.89 10.6 12 21.25 18.75 30.2"/>
            <path stroke="#000" d="M215.61-259.83l3.42 10.03-8.93-5.71 5.51-4.32z"/>
        </g>
        <g class="edge">
            <path fill="none" stroke="#000" d="M153.45-360.76c-10.51 9.18-23.81 20.82-35.34 30.92"/>
            <path stroke="#000" d="M120.28-327.1l-9.83 3.95 5.23-9.22 4.6 5.27z"/>
        </g>
        <g class="node">
            <ellipse fill="none" stroke="#000" cx="892" cy="-90" rx="35.79" ry="18"/>
            <text text-anchor="middle" x="892" y="-85.8" font-family="Times,serif" font-size="14">
                semver
            </text>
        </g>
        <g class="edge">
            <path fill="none" stroke="#000" d="M892-143.7v25.59"/>
            <path stroke="#000" d="M895.5-118.1l-3.5 10-3.5-10h7z"/>
        </g>
        <g class="node">
            <ellipse fill="none" stroke="#000" cx="291" cy="-378" rx="46.42" ry="18"/>
            <text text-anchor="middle" x="291" y="-373.8" font-family="Times,serif" font-size="14">
                num_cpus
            </text>
        </g>
        <g class="edge">
            <path fill="none" stroke="#000" d="M281.08-360.05c-4.84 8.25-10.75 18.35-16.12 27.51"/>
            <path stroke="#000" d="M267.91-330.65l-8.08 6.86 2.04-10.4 6.04 3.54z"/>
        </g>
        <g class="edge">
            <path fill="none" stroke="#000" d="M299.67-360.31c8.38 18.62 18.22 49.17 6.33 72.31-8.93 17.39-26.52 30.35-42.3 39.1"/>
            <path stroke="#000" d="M265.18-245.73l-10.49 1.5 7.27-7.71 3.22 6.21z"/>
        </g>
        <g class="node">
            <ellipse fill="none" stroke="#000" cx="487" cy="-522" rx="30.49" ry="18"/>
            <text text-anchor="middle" x="487" y="-517.8" font-family="Times,serif" font-size="14">
                rayon
            </text>
        </g>
        <g class="edge">
            <path fill="none" stroke="#000" d="M493.13-504.27c7.68 19.22 22.38 50.86 42.87 72.27 12.68 13.24 29.35 24.45 44.71 33.1"/>
            <path stroke="#000" d="M582.43-401.94l7.13 7.84-10.46-1.69 3.33-6.15z"/>
        </g>
        <g class="edge">
            <path fill="none" stroke="#000" d="M504.39-507.17c12.89 10.26 30.68 24.4 45.17 35.93"/>
            <path stroke="#000" d="M552-473.77l5.65 8.97-10-3.49 4.35-5.48z"/>
        </g>
        <g class="node">
            <ellipse fill="none" stroke="#000" cx="441" cy="-450" rx="48.31" ry="18"/>
            <text text-anchor="middle" x="441" y="-445.8" font-family="Times,serif" font-size="14">
                rayon-core
            </text>
        </g>
        <g class="edge">
            <path fill="none" stroke="#000" d="M476.33-504.76c-5.61 8.53-12.6 19.18-18.89 28.74"/>
            <path stroke="#000" d="M460.35-474.07l-8.42 6.44 2.57-10.28 5.85 3.84z"/>
        </g>
        <g class="edge">
            <path fill="none" stroke="#000" d="M473.54-436.49c28.44 10.95 70.11 26.97 102.23 39.32"/>
            <path stroke="#000" d="M577.32-400.32l8.08 6.86-10.59-.32 2.51-6.54z"/>
        </g>
        <g class="edge">
            <path fill="none" stroke="#000" d="M438.9-431.7c-2.9 30.99-5.15 97.11 21.1 143.7 7.21 12.8 18.89 23.58 30.56 32"/>
            <path stroke="#000" d="M492.67-258.79l6.31 8.5-10.24-2.71 3.93-5.79z"/>
        </g>
        <g class="edge">
            <path fill="none" stroke="#000" d="M436.1-431.96C425.22-390.35 403.77-282.11 453-216c9.27 12.44 43.16 27.15 71.93 37.91"/>
            <path stroke="#000" d="M526.26-181.33l8.19 6.73-10.59-.16 2.4-6.57z"/>
        </g>
        <g class="edge">
            <path fill="none" stroke="#000" d="M452.55-432.43c17.2 24.66 49.66 71.23 69.83 100.16"/>
            <path stroke="#000" d="M525.37-334.11l2.85 10.21-8.59-6.2 5.74-4.01z"/>
        </g>
        <g class="edge">
            <path fill="none" stroke="#000" d="M412.08-435.5c-23.73 11.07-57.52 26.84-83.37 38.9"/>
            <path stroke="#000" d="M330.12-393.39l-10.54 1.05 7.58-7.4 2.96 6.35z"/>
        </g>
        <g class="node">
            <ellipse fill="none" stroke="#000" cx="892" cy="-18" rx="60.04" ry="18"/>
            <text text-anchor="middle" x="892" y="-13.8" font-family="Times,serif" font-size="14">
                semver-parser
            </text>
        </g>
        <g class="edge">
            <path fill="none" stroke="#000" d="M892-71.7v25.59"/>
            <path stroke="#000" d="M895.5-46.1l-3.5 10-3.5-10h7z"/>
        </g>
        <g class="node">
            <path fill="none" stroke="#000" d="M402.88-612h-75.76v36h75.76v-36z"/>
            <text text-anchor="middle" x="365" y="-589.8" font-family="Times,serif" font-size="14">
                wordcount
            </text>
        </g>
        <g class="edge">
            <path fill="none" stroke="#000" d="M365-575.7v25.59"/>
            <path stroke="#000" d="M368.5-550.1l-3.5 10-3.5-10h7z"/>
        </g>
        <g class="edge">
            <path fill="none" stroke="#000" d="M346.63-575.7C336-565.51 322.5-552.26 311-540c-43.83 46.73-92.1 104.07-118.65 136.17"/>
            <path stroke="#000" d="M194.83-401.34l-9.06 5.49 3.66-9.94 5.4 4.45z"/>
        </g>
        <g class="edge">
            <path fill="none" stroke="#000" d="M394.84-575.88c18.92 10.86 43.3 24.84 62.23 35.71"/>
            <path stroke="#000" d="M458.94-543.13l6.94 8.01-10.42-1.94 3.48-6.07z"/>
        </g>
    </g>
</svg>

