<svg width="1340" height="476pt" viewBox="0 0 1004.74 476" xmlns="http://www.w3.org/2000/svg">
    <g class="graph">
        <path fill="#fff" stroke="transparent" d="M0 476V0h1004.74v476H0z"/>
        <g class="node" transform="translate(4 472)">
            <ellipse fill="none" stroke="#000" cx="343.74" cy="-18" rx="37.09" ry="18"/>
            <text text-anchor="middle" x="343.74" y="-14.3" font-family="Times,serif" font-size="14">autocfg</text>
        </g>
        <g class="node" transform="translate(4 472)">
            <ellipse fill="none" stroke="#000" cx="574.74" cy="-18" rx="30.59" ry="18"/>
            <text text-anchor="middle" x="574.74" y="-14.3" font-family="Times,serif" font-size="14">cfg-if</text>
        </g>
        <g class="node" transform="translate(4 472)">
            <ellipse fill="none" stroke="#000" cx="742.74" cy="-162" rx="78.79" ry="18"/>
            <text text-anchor="middle" x="742.74" y="-158.3" font-family="Times,serif" font-size="14">crossbeam-channel</text>
        </g>
        <g class="edge" stroke="#000">
            <path fill="none" d="M805.03 322.26c23.3 7.67 47.85 20.46 61.71 41.74 8.74 13.41 10.24 23.71 0 36-7.94 9.54-171.4 35.37-248.45 47.08"/>
            <path d="m618.42 450.6-10.41-1.96 9.36-4.96 1.05 6.92z"/>
        </g>
        <g class="node" transform="translate(4 472)">
            <ellipse fill="none" stroke="#000" cx="787.74" cy="-90" rx="66.09" ry="18"/>
            <text text-anchor="middle" x="787.74" y="-86.3" font-family="Times,serif" font-size="14">crossbeam-utils</text>
        </g>
        <g class="edge" stroke="#000">
            <path fill="none" d="m757.64 327.95 17.87 27.8"/>
            <path d="m778.49 353.91 2.46 10.3-8.35-6.52 5.89-3.78z"/>
        </g>
        <g class="edge" stroke="#000">
            <path fill="none" d="M751.18 396.33c-39.56 13-99.12 32.58-136.87 44.98"/>
            <path d="m615.33 444.66-10.59-.2 8.41-6.45 2.18 6.65z"/>
        </g>
        <g class="node" transform="translate(4 472)">
            <ellipse fill="none" stroke="#000" cx="748.74" cy="-18" rx="48.19" ry="18"/>
            <text text-anchor="middle" x="748.74" y="-14.3" font-family="Times,serif" font-size="14">lazy_static</text>
        </g>
        <g class="edge" stroke="#000">
            <path fill="none" d="M782.3 399.95c-4.6 8.25-10.22 18.35-15.33 27.51"/>
            <path d="m770.02 429.18-7.92 7.03 1.81-10.44 6.11 3.41z"/>
        </g>
        <g class="node" transform="translate(4 472)">
            <ellipse fill="none" stroke="#000" cx="535.74" cy="-234" rx="72.29" ry="18"/>
            <text text-anchor="middle" x="535.74" y="-230.3" font-family="Times,serif" font-size="14">crossbeam-deque</text>
        </g>
        <g class="edge" stroke="#000">
            <path fill="none" d="M509.23 254.48C457.84 282.6 363.49 344.31 404.74 400c30.44 41.08 91.97 51.4 133.1 53.43"/>
            <path d="m538.21 449.94 9.87 3.85-10.12 3.15.25-7z"/>
        </g>
        <g class="edge" stroke="#000">
            <path fill="none" d="M566.47 254.8c16.2 9.99 37 23.55 54.27 37.2 18.26 14.43 18.4 23.47 38 36 24.5 15.66 54.38 28.07 79.61 36.94"/>
            <path d="m739.79 361.74 8.33 6.54-10.59.08 2.26-6.62z"/>
        </g>
        <g class="node" transform="translate(4 472)">
            <ellipse fill="none" stroke="#000" cx="535.74" cy="-162" rx="72.29" ry="18"/>
            <text text-anchor="middle" x="535.74" y="-158.3" font-family="Times,serif" font-size="14">crossbeam-epoch</text>
        </g>
        <g class="edge" stroke="#000">
            <path fill="none" d="M539.74 256.3v25.59"/>
            <path d="m543.24 281.9-3.5 10-3.5-10h7z"/>
        </g>
        <g class="edge" stroke="#000">
            <path fill="none" d="M488.65 322.84c-27.09 8.18-59.68 21.26-83.91 41.16-20.49 16.84-36.02 43.04-45.65 62.66"/>
            <path d="m362.14 428.41-7.42 7.56 1.08-10.54 6.34 2.98z"/>
        </g>
        <g class="edge" stroke="#000">
            <path fill="none" d="M544.28 328.08c4.78 17.93 12.56 46.93 19.46 71.92 2.36 8.52 4.97 17.79 7.34 26.17"/>
            <path d="m574.46 425.25-.63 10.58-6.1-8.66 6.73-1.92z"/>
        </g>
        <g class="edge" stroke="#000">
            <path fill="none" d="M585.97 323.84c42.66 11.85 106.07 29.46 151.21 42"/>
            <path d="m738.39 362.55 8.7 6.05-10.58.69 1.88-6.74z"/>
        </g>
        <g class="edge" stroke="#000">
            <path fill="none" d="M546.56 328.23c8.75 19.99 25.77 52.65 50.18 71.77 29.57 23.15 69.84 36.5 102.06 44.01"/>
            <path d="m699.94 440.67 9.02 5.57-10.52 1.27 1.5-6.84z"/>
        </g>
        <g class="node" transform="translate(4 472)">
            <ellipse fill="none" stroke="#000" cx="458.74" cy="-90" rx="49.29" ry="18"/>
            <text text-anchor="middle" x="458.74" y="-86.3" font-family="Times,serif" font-size="14">memoffset</text>
        </g>
        <g class="edge" stroke="#000">
            <path fill="none" d="M521.5 327.59c-10.02 9.11-22.6 20.54-33.55 30.49"/>
            <path d="m490.09 360.87-9.76 4.14 5.05-9.31 4.71 5.17z"/>
        </g>
        <g class="node" transform="translate(4 472)">
            <ellipse fill="none" stroke="#000" cx="652.74" cy="-90" rx="50.89" ry="18"/>
            <text text-anchor="middle" x="652.74" y="-86.3" font-family="Times,serif" font-size="14">scopeguard</text>
        </g>
        <g class="edge" stroke="#000">
            <path fill="none" d="M566.29 326.88c16.77 10.03 38.58 23.09 56.59 33.86"/>
            <path d="m625.12 358 6.78 8.14-10.38-2.13 3.6-6.01z"/>
        </g>
        <g class="edge" stroke="#000">
            <path fill="none" d="M438.36 397.85c-17.34 10.55-40.77 24.81-59.46 36.19"/>
            <path d="m380.51 437.15-10.36 2.21 6.72-8.19 3.64 5.98z"/>
        </g>
        <g class="node" transform="translate(4 472)">
            <ellipse fill="none" stroke="#000" cx="498.74" cy="-306" rx="30.59" ry="18"/>
            <text text-anchor="middle" x="498.74" y="-302.3" font-family="Times,serif" font-size="14">either</text>
        </g>
        <g class="node" transform="translate(4 472)">
            <ellipse fill="none" stroke="#000" cx="78.74" cy="-378" rx="36.29" ry="18"/>
            <text text-anchor="middle" x="78.74" y="-374.3" font-family="Times,serif" font-size="14">getopts</text>
        </g>
        <g class="node" transform="translate(4 472)">
            <ellipse fill="none" stroke="#000" cx="61.74" cy="-306" rx="61.99" ry="18"/>
            <text text-anchor="middle" x="61.74" y="-302.3" font-family="Times,serif" font-size="14">unicode-width</text>
        </g>
        <g class="edge" stroke="#000">
            <path fill="none" d="M78.63 111.95c-1.89 7.79-4.19 17.23-6.31 25.97"/>
            <path d="m75.7 138.83-5.76 8.89-1.04-10.54 6.8 1.65z"/>
        </g>
        <g class="node" transform="translate(4 472)">
            <ellipse fill="none" stroke="#000" cx="228.74" cy="-306" rx="49.29" ry="18"/>
            <text text-anchor="middle" x="228.74" y="-302.3" font-family="Times,serif" font-size="14">hashbrown</text>
        </g>
        <g class="node" transform="translate(4 472)">
            <ellipse fill="none" stroke="#000" cx="925.74" cy="-162" rx="48.19" ry="18"/>
            <text text-anchor="middle" x="925.74" y="-158.3" font-family="Times,serif" font-size="14">hermit-abi</text>
        </g>
        <g class="node" transform="translate(4 472)">
            <ellipse fill="none" stroke="#000" cx="969.74" cy="-90" rx="27" ry="18"/>
            <text text-anchor="middle" x="969.74" y="-86.3" font-family="Times,serif" font-size="14">libc</text>
        </g>
        <g class="edge" stroke="#000">
            <path fill="none" d="M940.17 327.59c5.39 8.58 12.08 19.22 18.07 28.74"/>
            <path d="m961.34 354.68 2.35 10.33-8.28-6.6 5.93-3.73z"/>
        </g>
        <g class="node" transform="translate(4 472)">
            <ellipse fill="none" stroke="#000" cx="212.74" cy="-378" rx="46.29" ry="18"/>
            <text text-anchor="middle" x="212.74" y="-374.3" font-family="Times,serif" font-size="14">indexmap</text>
        </g>
        <g class="edge" stroke="#000">
            <path fill="none" d="M200.55 111.3c-8.9 9.86-19.4 23.11-25.81 36.7-17.23 36.59-19 48.55-19 89v74c0 73.92 93.14 113.75 149.67 131.12"/>
            <path d="m306.58 438.82 8.59 6.19-10.58.52 1.99-6.71z"/>
        </g>
        <g class="edge" stroke="#000">
            <path fill="none" d="M220.62 111.95c1.78 7.79 3.94 17.23 5.94 25.97"/>
            <path d="m229.98 137.2-1.18 10.52-5.64-8.96 6.82-1.56z"/>
        </g>
        <g class="node" transform="translate(4 472)">
            <ellipse fill="none" stroke="#000" cx="925.74" cy="-234" rx="47.39" ry="18"/>
            <text text-anchor="middle" x="925.74" y="-230.3" font-family="Times,serif" font-size="14">num_cpus</text>
        </g>
        <g class="edge" stroke="#000">
            <path fill="none" d="M929.74 256.3v25.59"/>
            <path d="m933.24 281.9-3.5 10-3.5-10h7z"/>
        </g>
        <g class="edge" stroke="#000">
            <path fill="none" d="M953.36 253.83c12.45 9.27 26.53 22.44 33.38 38.17 8.74 20.05 4.03 44.8-2.04 63.11"/>
            <path d="m987.98 356.34-6.71 8.21.13-10.6 6.58 2.39z"/>
        </g>
        <g class="node" transform="translate(4 472)">
            <ellipse fill="none" stroke="#000" cx="439.74" cy="-378" rx="30.59" ry="18"/>
            <text text-anchor="middle" x="439.74" y="-374.3" font-family="Times,serif" font-size="14">rayon</text>
        </g>
        <g class="edge" stroke="#000">
            <path fill="none" d="M420.71 106.08C382.4 126.32 309.74 173.11 309.74 237v74c0 41.59 15.41 87.78 26.6 115.86"/>
            <path d="m339.67 425.76.57 10.58-7.04-7.92 6.47-2.66z"/>
        </g>
        <g class="edge" stroke="#000">
            <path fill="none" d="M443.73 112.18c.78 19.07 4.44 50.01 19.01 71.82 8.8 13.16 22.06 23.98 35.12 32.34"/>
            <path d="m500.04 213.57 6.76 8.16-10.37-2.17 3.61-5.99z"/>
        </g>
        <g class="edge" stroke="#000">
            <path fill="none" d="M456.84 110.54c7.71 9.15 17.62 20.91 26.26 31.15"/>
            <path d="m485.92 139.61 3.77 9.9-9.12-5.39 5.35-4.51z"/>
        </g>
        <g class="node" transform="translate(4 472)">
            <ellipse fill="none" stroke="#000" cx="742.74" cy="-306" rx="48.99" ry="18"/>
            <text text-anchor="middle" x="742.74" y="-302.3" font-family="Times,serif" font-size="14">rayon-core</text>
        </g>
        <g class="edge" stroke="#000">
            <path fill="none" d="M471.71 101.46c51.17 11.82 160.54 37.09 224.88 51.95"/>
            <path d="m697.55 150.04 8.96 5.66-10.53 1.16 1.57-6.82z"/>
        </g>
        <g class="edge" stroke="#000">
            <path fill="none" d="M746.74 184.13v97.48"/>
            <path d="m750.24 281.81-3.5 10-3.5-10h7z"/>
        </g>
        <g class="edge" stroke="#000">
            <path fill="none" d="M763.39 183.33c21.36 22.24 57.33 64.39 71.35 108.67 4.84 15.25 5.35 20.92 0 36-3.72 10.49-10.5 20.42-17.6 28.79"/>
            <path d="m819.64 359.25-9.3 5.05 4.12-9.76 5.18 4.71z"/>
        </g>
        <g class="edge" stroke="#000">
            <path fill="none" d="M712.1 178.72c-33.18 11.21-83.62 28.27-121.38 41.04"/>
            <path d="m591.52 223.19-10.6-.11 8.35-6.52 2.25 6.63z"/>
        </g>
        <g class="edge" stroke="#000">
            <path fill="none" d="M779.46 179.51c30.41 11.64 75.85 29.02 108.79 41.62"/>
            <path d="m889.53 217.87 8.09 6.84-10.59-.3 2.5-6.54z"/>
        </g>
        <g class="node">
            <path fill="none" stroke="#000" d="M253.74 4h-74v36h74V4z"/>
            <text text-anchor="middle" x="212.74" y="-446.3" font-family="Times,serif" font-size="14" transform="translate(4 472)">wordcount</text>
        </g>
        <g class="edge" stroke="#000">
            <path fill="none" d="M183.96 40.12c-20.69 10.81-47.34 24.74-68.1 35.58"/>
            <path d="m117.26 78.92-10.48 1.52 7.24-7.73 3.24 6.21z"/>
        </g>
        <g class="edge" stroke="#000">
            <path fill="none" d="M216.74 40.3v25.59"/>
            <path d="m220.24 65.9-3.5 10-3.5-10h7z"/>
        </g>
        <g class="edge" stroke="#000">
            <path fill="none" d="M253.97 34.48c42.51 13.11 111.57 34.4 153.62 47.37"/>
            <path d="m408.63 78.51 8.52 6.29-10.59.4 2.07-6.69z"/>
        </g>
    </g>
</svg>
